# xmcd CD database file
#
# Track frame offsets:
#	150
#	29367
#	83150
#	94612
#	118792
#	149945
#	168230
#	198382
#	221007
#	247570
#	269475
#	300460
#	322757
#	326313
#
# Disc length: 4487 seconds
#
# Revision: 0
# Processed by: cddbd v1.5.2PL0 Copyright (c) Steve Scherf et al.
# Submitted via: CDex 1.70
#
DISCID=bb11850e
DTITLE=Francisco Mora Catlett - River Drum
DYEAR=2005
DGENRE=Jazz
TTITLE0=AFRO JUM
TTITLE1=AFRO JUM 2
TTITLE2=AFRO JUM 3
TTITLE3=Samba - Conga de Amor
TTITLE4=Amazona Prelude - Dawn
TTITLE5=Amazona
TTITLE6=Amazon Epilogue - Sunset
TTITLE7=Rumba Morena
TTITLE8=El Morro
TTITLE9=Old Man Joe
TTITLE10=AJ's Blues
TTITLE11=King Of Lightning - Drums Solo
TTITLE12=Por Que Paro
TTITLE13=Hasta La Vista
EXTD=YEAR: 2005
EXTT0=
EXTT1=
EXTT2=
EXTT3=
EXTT4=
EXTT5=
EXTT6=
EXTT7=
EXTT8=
EXTT9=
EXTT10=
EXTT11=
EXTT12=
EXTT13=
PLAYORDER=
